<?xml version="1.0" encoding="UTF-8"?>
<svg xmlns="http://www.w3.org/2000/svg" version="1.1" width="100" height="100" viewBox="0 0 100 100"><rect x="0" y="0" width="100" height="100" fill="#ffffff"/><g transform="scale(3.448)"><g transform="translate(0,0)"><path fill-rule="evenodd" d="M9 0L9 1L8 1L8 2L9 2L9 3L8 3L8 4L9 4L9 5L8 5L8 7L9 7L9 8L6 8L6 9L5 9L5 8L0 8L0 9L2 9L2 10L3 10L3 11L4 11L4 12L6 12L6 13L9 13L9 15L8 15L8 16L6 16L6 15L7 15L7 14L5 14L5 13L4 13L4 14L3 14L3 15L2 15L2 13L3 13L3 12L2 12L2 13L1 13L1 12L0 12L0 13L1 13L1 14L0 14L0 15L2 15L2 16L0 16L0 21L1 21L1 17L2 17L2 20L3 20L3 21L4 21L4 19L3 19L3 17L2 17L2 16L3 16L3 15L5 15L5 19L7 19L7 18L9 18L9 16L12 16L12 18L11 18L11 17L10 17L10 19L11 19L11 20L9 20L9 19L8 19L8 20L9 20L9 21L8 21L8 23L11 23L11 24L8 24L8 29L10 29L10 27L9 27L9 25L11 25L11 24L12 24L12 26L13 26L13 27L15 27L15 26L16 26L16 27L17 27L17 28L18 28L18 29L19 29L19 28L18 28L18 26L19 26L19 27L20 27L20 29L21 29L21 27L20 27L20 26L21 26L21 25L25 25L25 26L26 26L26 27L25 27L25 28L24 28L24 27L23 27L23 26L22 26L22 27L23 27L23 28L22 28L22 29L23 29L23 28L24 28L24 29L25 29L25 28L26 28L26 29L27 29L27 27L28 27L28 28L29 28L29 27L28 27L28 26L26 26L26 24L27 24L27 25L29 25L29 23L27 23L27 22L28 22L28 20L29 20L29 19L28 19L28 18L29 18L29 17L27 17L27 16L29 16L29 15L28 15L28 14L29 14L29 13L27 13L27 14L26 14L26 13L24 13L24 12L26 12L26 11L27 11L27 12L29 12L29 10L26 10L26 8L25 8L25 9L24 9L24 8L23 8L23 9L24 9L24 10L23 10L23 11L22 11L22 12L20 12L20 11L21 11L21 10L20 10L20 11L18 11L18 10L19 10L19 9L18 9L18 10L16 10L16 8L21 8L21 9L22 9L22 8L21 8L21 6L20 6L20 7L19 7L19 6L18 6L18 5L16 5L16 3L17 3L17 4L19 4L19 5L21 5L21 3L20 3L20 2L21 2L21 1L20 1L20 2L19 2L19 3L17 3L17 2L18 2L18 1L19 1L19 0L18 0L18 1L17 1L17 0L16 0L16 1L15 1L15 0L14 0L14 1L13 1L13 0L12 0L12 1L11 1L11 2L9 2L9 1L10 1L10 0ZM12 1L12 2L13 2L13 5L12 5L12 3L11 3L11 5L10 5L10 6L9 6L9 7L10 7L10 9L6 9L6 10L5 10L5 9L4 9L4 10L5 10L5 11L6 11L6 12L7 12L7 11L9 11L9 12L11 12L11 13L10 13L10 14L11 14L11 15L13 15L13 18L14 18L14 15L13 15L13 14L14 14L14 13L15 13L15 12L16 12L16 13L17 13L17 14L18 14L18 16L19 16L19 18L18 18L18 17L17 17L17 15L15 15L15 16L16 16L16 18L18 18L18 19L20 19L20 20L19 20L19 21L20 21L20 20L21 20L21 19L26 19L26 18L27 18L27 17L26 17L26 18L24 18L24 17L25 17L25 16L27 16L27 15L26 15L26 14L24 14L24 13L23 13L23 12L24 12L24 11L25 11L25 10L24 10L24 11L23 11L23 12L22 12L22 13L20 13L20 12L18 12L18 11L13 11L13 10L15 10L15 9L13 9L13 10L12 10L12 8L14 8L14 6L15 6L15 8L16 8L16 5L14 5L14 3L16 3L16 2L13 2L13 1ZM9 3L9 4L10 4L10 3ZM19 3L19 4L20 4L20 3ZM11 5L11 6L10 6L10 7L11 7L11 8L12 8L12 7L13 7L13 6L14 6L14 5L13 5L13 6L12 6L12 5ZM11 6L11 7L12 7L12 6ZM17 6L17 7L18 7L18 6ZM27 8L27 9L28 9L28 8ZM6 10L6 11L7 11L7 10ZM10 10L10 11L11 11L11 12L12 12L12 13L11 13L11 14L12 14L12 13L13 13L13 12L12 12L12 11L11 11L11 10ZM17 12L17 13L18 13L18 12ZM19 13L19 14L20 14L20 15L19 15L19 16L20 16L20 15L21 15L21 14L20 14L20 13ZM22 15L22 16L25 16L25 15ZM6 17L6 18L7 18L7 17ZM20 17L20 19L21 19L21 17ZM22 17L22 18L23 18L23 17ZM12 19L12 20L11 20L11 22L15 22L15 21L13 21L13 20L14 20L14 19ZM15 19L15 20L16 20L16 21L17 21L17 22L16 22L16 23L12 23L12 24L14 24L14 25L13 25L13 26L14 26L14 25L15 25L15 24L16 24L16 26L18 26L18 25L17 25L17 24L16 24L16 23L17 23L17 22L18 22L18 23L19 23L19 26L20 26L20 23L19 23L19 22L18 22L18 21L17 21L17 20L16 20L16 19ZM27 19L27 20L28 20L28 19ZM6 20L6 21L7 21L7 20ZM21 21L21 24L24 24L24 21ZM26 21L26 22L25 22L25 24L26 24L26 22L27 22L27 21ZM22 22L22 23L23 23L23 22ZM11 27L11 28L12 28L12 27ZM13 28L13 29L14 29L14 28ZM15 28L15 29L16 29L16 28ZM0 0L0 7L7 7L7 0ZM1 1L1 6L6 6L6 1ZM2 2L2 5L5 5L5 2ZM22 0L22 7L29 7L29 0ZM23 1L23 6L28 6L28 1ZM24 2L24 5L27 5L27 2ZM0 22L0 29L7 29L7 22ZM1 23L1 28L6 28L6 23ZM2 24L2 27L5 27L5 24Z" fill="#000000"/></g></g></svg>
